<?xml version="1.0" standalone="no"?>
<!DOCTYPE svg PUBLIC "-//W3C//DTD SVG 20010904//EN"
 "http://www.w3.org/TR/2001/REC-SVG-20010904/DTD/svg10.dtd">
<svg version="1.0" xmlns="http://www.w3.org/2000/svg"
 width="571.000000pt" height="571.000000pt" viewBox="0 0 571.000000 571.000000"
 preserveAspectRatio="xMidYMid meet">
<metadata>
Created by potrace 1.14, written by Peter Selinger 2001-2017
</metadata>
<g transform="translate(0.000000,571.000000) scale(0.100000,-0.100000)"
fill="#000000" stroke="none">
<path d="M3246 4453 c-1 -1 -72 -5 -157 -9 -256 -10 -276 -11 -288 -18 -6 -4
-11 -2 -11 4 0 6 -5 8 -12 3 -7 -4 -24 -8 -38 -9 -25 -2 -154 -12 -260 -21
-30 -2 -70 -5 -87 -6 -18 -1 -33 -4 -33 -7 0 -3 -26 -6 -58 -8 -31 -1 -68 -5
-82 -7 -37 -8 -122 -18 -147 -18 -13 -1 -23 -4 -23 -8 0 -4 -13 -5 -30 -4 -16
1 -30 0 -30 -4 0 -3 -18 -6 -40 -5 -23 0 -43 -3 -45 -6 -3 -4 -20 -6 -40 -4
-19 1 -35 -1 -35 -5 0 -5 -16 -7 -36 -6 -19 1 -37 -2 -39 -6 -3 -4 -18 -6 -35
-5 -16 1 -30 -2 -30 -7 0 -5 -18 -7 -39 -5 -22 2 -37 0 -35 -4 5 -8 -11 -12
-30 -9 -11 2 -214 -38 -248 -49 -20 -6 -28 -6 -28 3 0 9 -2 9 -8 0 -4 -6 -19
-13 -32 -15 -14 -2 -29 -6 -35 -9 -5 -4 -20 -5 -33 -4 -12 1 -22 -2 -22 -7 0
-5 -5 -6 -10 -3 -6 3 -10 3 -10 -2 0 -4 -10 -8 -22 -9 -22 -1 -73 -11 -73 -14
0 -1 -17 -6 -47 -13 -7 -1 -19 -6 -26 -10 -6 -5 -16 -6 -21 -2 -5 3 -13 0 -16
-6 -4 -5 -13 -8 -21 -5 -8 3 -14 1 -14 -4 0 -8 -57 -26 -72 -22 -5 1 -8 -3 -8
-8 0 -6 -6 -10 -12 -8 -7 1 -22 -3 -33 -9 -11 -6 -29 -13 -40 -14 -11 -2 -22
-7 -25 -10 -3 -3 -31 -18 -62 -32 -31 -15 -60 -32 -64 -38 -4 -8 -9 -7 -15 2
-7 11 -9 11 -9 1 0 -16 -45 -62 -60 -62 -6 0 -9 -4 -6 -9 3 -5 -5 -20 -18 -34
-16 -17 -23 -35 -21 -60 1 -25 -2 -34 -12 -30 -9 3 -11 0 -7 -10 3 -10 -3 -20
-18 -28 -13 -7 -30 -20 -39 -30 -9 -10 -18 -16 -21 -13 -3 2 -18 -9 -34 -25
-15 -16 -31 -28 -36 -25 -4 3 -8 1 -8 -5 0 -5 -23 -33 -50 -60 -28 -28 -51
-54 -53 -58 -1 -5 -6 -7 -10 -5 -5 1 -6 -2 -2 -8 3 -5 -1 -13 -9 -16 -9 -3
-13 -10 -11 -15 3 -5 -3 -16 -15 -26 -11 -10 -20 -25 -20 -35 0 -9 -4 -20 -10
-23 -5 -3 -10 -15 -10 -26 0 -11 -6 -22 -13 -25 -7 -2 -14 -14 -14 -26 -1 -12
-8 -25 -15 -29 -10 -7 -10 -9 2 -9 13 0 13 -1 0 -10 -8 -5 -11 -10 -6 -10 5 0
4 -6 -2 -13 -6 -7 -9 -22 -8 -32 2 -11 -1 -26 -6 -32 -6 -7 -12 -32 -14 -55
-2 -23 -10 -46 -17 -50 -6 -4 -7 -8 -2 -8 12 0 14 -79 2 -97 -4 -6 -3 -14 3
-18 7 -4 6 -13 -1 -27 -8 -15 -8 -22 1 -28 9 -6 9 -9 -1 -13 -11 -4 -11 -6 -1
-6 8 -1 10 -6 5 -13 -8 -14 -11 -98 -3 -98 3 0 6 -11 6 -25 1 -15 -2 -22 -9
-18 -6 4 -7 1 -2 -8 5 -7 10 -34 12 -59 7 -94 8 -105 16 -111 5 -3 8 -25 9
-47 0 -23 3 -42 7 -42 4 0 8 -10 8 -22 4 -54 9 -78 16 -78 4 0 7 -11 7 -25 0
-14 4 -25 8 -25 4 0 9 -9 10 -20 4 -42 6 -50 11 -50 4 0 8 -12 9 -27 1 -16 7
-29 12 -31 6 -2 10 -11 10 -21 0 -9 6 -23 13 -30 10 -11 9 -12 -3 -6 -11 6
-10 3 3 -12 9 -11 14 -23 10 -26 -3 -4 -1 -7 5 -7 7 0 11 -3 10 -7 -4 -14 13
-53 23 -53 5 0 9 -5 9 -11 0 -5 -6 -7 -12 -3 -7 5 -3 -5 10 -20 12 -16 19 -33
15 -39 -3 -6 -1 -7 5 -3 7 4 12 1 12 -8 0 -8 7 -22 16 -30 8 -9 11 -16 5 -16
-6 0 -4 -8 4 -17 8 -10 15 -21 15 -25 0 -4 16 -23 34 -42 19 -19 32 -37 29
-40 -4 -3 0 -6 8 -6 8 0 27 -14 43 -30 16 -17 33 -30 38 -30 5 0 6 -5 3 -10
-4 -6 -3 -10 2 -9 12 4 63 -23 63 -33 0 -4 9 -8 20 -8 11 0 20 -5 20 -11 0 -5
5 -7 10 -4 6 3 10 1 10 -5 0 -6 4 -8 10 -5 5 3 10 1 10 -5 0 -6 4 -9 9 -5 5 3
15 0 23 -7 7 -7 24 -15 38 -16 14 -2 32 -10 40 -17 8 -7 23 -11 33 -10 9 2 15
0 13 -4 -4 -6 73 -35 96 -36 3 0 10 -3 14 -8 4 -4 18 -7 31 -7 12 0 23 -4 23
-8 0 -5 13 -9 30 -10 16 0 35 -4 42 -9 7 -4 22 -9 32 -10 11 -2 25 -8 31 -13
7 -6 16 -5 23 2 8 8 12 9 12 1 0 -6 11 -10 25 -8 14 1 25 -1 25 -6 0 -5 7 -6
15 -3 8 3 20 2 27 -2 13 -8 19 -9 76 -15 17 -2 32 -6 32 -9 0 -3 12 -6 28 -7
30 -1 121 -11 167 -18 17 -3 162 -6 323 -6 209 -2 296 1 305 10 6 6 19 11 30
11 10 0 16 3 14 8 -3 4 1 13 9 20 8 7 14 10 14 6 0 -4 10 6 22 22 39 48 76 83
83 76 3 -3 3 1 0 10 -4 9 -1 19 4 23 6 3 9 11 6 16 -4 5 -2 9 4 9 5 0 8 9 6
20 -2 11 0 22 6 25 5 4 9 11 9 16 0 6 -6 7 -12 3 -9 -5 -9 -2 1 9 7 9 10 17 5
17 -5 0 -2 5 6 10 8 5 10 10 4 10 -11 0 -12 35 -2 46 4 3 4 12 1 20 -3 8 -1
20 4 27 5 6 9 33 8 60 -2 46 -1 47 28 47 17 0 39 -7 48 -16 10 -9 29 -17 41
-18 13 -1 22 -7 21 -12 -1 -6 4 -11 12 -11 8 0 11 5 8 11 -3 6 0 5 8 -2 7 -6
23 -12 36 -12 13 0 23 -4 23 -10 0 -5 8 -10 18 -10 10 0 23 -5 29 -11 24 -24
280 -32 307 -10 10 8 16 9 21 1 4 -7 13 -6 27 4 11 8 26 12 33 10 7 -3 16 0
20 5 3 6 10 9 15 6 5 -3 11 -1 15 5 3 5 15 10 26 10 10 0 19 4 19 9 0 9 33 23
58 25 7 1 17 8 22 16 5 8 10 11 10 6 0 -6 6 -1 14 10 8 10 18 19 24 19 5 0 25
18 45 39 20 21 37 35 37 30 0 -5 9 6 20 24 11 17 23 32 28 32 4 0 9 10 9 22 1
13 7 24 13 26 7 3 7 9 -2 20 -10 12 -10 14 -1 8 16 -9 14 45 -2 56 -6 5 -4 8
5 8 13 0 13 2 1 9 -8 5 -15 17 -16 28 -1 10 -7 29 -12 43 -6 14 -9 28 -6 33 2
4 -1 7 -8 7 -7 0 -9 3 -6 6 3 4 0 16 -8 27 -10 14 -11 25 -4 39 7 14 7 18 -3
16 -8 -2 -13 6 -12 20 1 12 -3 22 -8 22 -5 0 -6 5 -3 10 3 6 1 10 -6 10 -7 0
-9 3 -6 7 4 3 0 17 -9 31 -9 13 -11 21 -5 18 7 -5 9 -1 5 8 -3 9 -11 16 -18
16 -7 0 -7 3 -1 8 15 11 17 115 2 124 -9 6 -9 8 2 8 11 0 11 3 0 17 -12 15
-12 16 1 8 12 -7 13 -6 3 6 -7 9 -9 20 -3 29 5 9 5 19 -2 27 -8 10 -7 13 3 13
12 0 12 2 0 9 -7 5 -10 14 -7 20 4 6 2 11 -5 11 -6 0 -19 8 -28 18 -9 9 -25
22 -36 29 -11 6 -19 17 -17 25 2 7 0 10 -4 6 -4 -4 -17 3 -29 17 -13 13 -26
21 -29 18 -3 -3 -8 2 -12 11 -3 9 -10 13 -15 10 -5 -3 -9 -1 -9 4 0 9 -45 25
-55 20 -2 -2 -11 6 -19 17 -8 11 -18 17 -22 13 -4 -4 -20 2 -37 14 -17 13 -27
16 -22 7 8 -12 6 -12 -9 1 -17 13 -17 14 -1 20 10 4 33 6 51 5 19 -1 34 1 34
4 0 4 17 7 38 8 20 0 66 4 102 8 36 3 73 7 83 8 9 1 17 4 17 7 0 4 41 9 123
13 15 1 27 4 27 7 0 3 10 5 23 5 12 1 33 5 46 9 18 6 22 5 15 -5 -6 -10 -3
-10 10 1 25 20 90 24 82 5 -3 -10 0 -12 11 -8 11 4 14 2 9 -5 -4 -7 -1 -12 8
-12 8 0 18 -9 21 -21 4 -11 9 -18 12 -16 2 3 15 -6 29 -20 13 -13 29 -21 34
-18 6 3 10 0 10 -7 0 -14 37 -21 107 -20 22 0 30 -4 26 -12 -4 -7 -1 -6 9 1 8
7 17 11 19 8 3 -2 25 -7 49 -10 70 -9 74 -10 85 -16 6 -3 26 -6 45 -8 19 -2
38 -8 41 -13 4 -7 9 -6 13 1 4 6 13 8 19 4 13 -8 39 -14 72 -16 11 -1 22 -5
25 -8 3 -4 19 -8 35 -10 17 -2 35 -7 41 -11 7 -5 16 -8 20 -7 26 4 45 -2 38
-13 -6 -10 -5 -10 7 -1 12 10 18 10 27 1 7 -7 12 -9 12 -5 0 4 15 1 34 -7 26
-11 37 -11 46 -3 10 9 11 9 6 0 -5 -9 1 -13 18 -13 13 0 31 -7 39 -15 8 -8 17
-12 20 -9 8 8 80 -17 89 -30 5 -7 8 -6 8 3 0 9 4 10 13 4 15 -13 89 -38 100
-35 4 1 15 -4 23 -13 14 -13 35 -20 57 -16 4 1 10 -6 13 -14 3 -8 10 -12 15
-9 5 3 9 0 9 -6 0 -7 6 -10 14 -7 8 3 23 -3 34 -13 11 -10 23 -16 26 -13 3 4
6 1 6 -6 0 -7 5 -9 10 -6 6 3 10 -3 10 -14 0 -12 6 -21 14 -21 15 0 32 -37 22
-47 -3 -3 2 -13 12 -22 10 -9 17 -26 16 -38 -1 -12 5 -24 13 -28 8 -3 13 -12
10 -20 -4 -10 -1 -12 10 -8 13 5 15 2 9 -12 -4 -11 -4 -16 0 -12 4 4 12 3 19
-3 6 -5 30 -12 53 -14 22 -3 45 -6 49 -7 18 -4 113 39 113 51 0 6 4 9 10 8 12
-4 90 83 90 100 0 6 3 12 8 12 4 0 15 18 25 40 9 22 21 40 27 40 5 0 9 3 8 8
-3 14 14 62 23 62 5 0 9 9 9 20 0 11 7 23 15 26 8 4 12 11 9 16 -4 6 0 14 7
19 11 7 11 9 1 9 -7 0 -10 5 -7 10 4 6 11 7 17 4 6 -4 6 2 -1 15 -8 14 -8 21
-1 21 5 0 10 7 10 15 0 8 5 15 10 15 6 0 9 6 8 13 -2 6 2 11 9 10 7 -2 10 4 7
12 -4 9 0 15 7 15 11 0 11 3 -1 10 -11 7 -11 10 -2 10 7 0 10 5 7 10 -3 6 -1
10 5 10 6 0 9 4 6 9 -4 5 -2 11 4 13 15 5 26 142 22 279 -5 182 -6 197 -17
196 -5 -1 -9 6 -8 16 1 13 -4 17 -15 12 -13 -5 -14 -3 -5 6 12 12 6 42 -6 34
-4 -2 -7 9 -6 25 1 16 -2 27 -7 24 -4 -3 -8 -1 -8 4 0 4 -9 18 -20 30 -12 12
-16 22 -10 22 5 0 2 8 -7 18 -10 11 -21 17 -25 15 -5 -2 -8 1 -8 6 0 14 -65
81 -79 81 -6 0 -11 5 -11 10 0 6 -7 10 -16 10 -8 0 -12 5 -9 10 3 6 -2 10 -12
10 -10 0 -25 9 -33 19 -7 11 -17 18 -22 15 -4 -3 -8 3 -8 13 0 15 -2 16 -10 3
-8 -13 -10 -12 -10 4 0 12 -5 16 -15 12 -8 -3 -15 -1 -15 4 0 6 -7 10 -15 10
-8 0 -15 5 -15 11 0 5 -5 7 -10 4 -6 -3 -12 0 -15 7 -3 8 -18 15 -33 16 -15 1
-33 10 -39 19 -7 9 -13 13 -13 9 0 -5 -7 -3 -15 4 -8 7 -13 16 -10 20 3 5 -1
11 -7 13 -7 3 -4 6 7 6 14 1 16 4 8 9 -7 4 -13 29 -14 55 -1 26 -6 47 -11 47
-5 0 -6 5 -3 10 3 6 -1 13 -9 16 -9 3 -16 10 -16 16 0 19 -83 82 -94 71 -3 -3
-6 -1 -6 5 0 7 -3 11 -7 11 -5 -1 -10 -1 -13 1 -3 1 -16 4 -30 6 -13 2 -27 10
-31 16 -4 6 -14 8 -23 5 -9 -4 -16 -2 -16 3 0 6 -3 9 -7 9 -5 -1 -10 0 -13 1
-3 1 -18 4 -35 6 -16 3 -37 7 -45 11 -20 8 -60 16 -90 17 -14 1 -27 4 -30 7
-5 6 -36 12 -130 24 -19 2 -53 7 -75 9 -131 17 -320 33 -475 41 -101 5 -660
12 -664 8z"/>
</g>
</svg>
